<svg version="1.1" xmlns="http://www.w3.org/2000/svg" xmlns:xlink="http://www.w3.org/1999/xlink" x="0px" y="0px" width="100%" height="100%" viewBox="0 0 110.25 85.374" enable-background="new 0 0 110.25 85.374" xml:space="preserve"> <g> <g> <g> <g> <path fill="#E1E8ED" d="M19.258,57.479c-0.047-6.932,6.225-5.07,11.911-5.108l67.997-0.448 c5.688-0.037,10.786,0.785,10.834,7.717l-0.83,13.24c0.048,6.932-4.181,5.471-9.867,5.508c0,0,0.561-11.182-9.985-11.295 c-11.685-0.128-10.634,11.494-10.634,11.494l-27.83-0.402c0,0,0.919-11.511-10.375-11.045 c-10.458,0.432-9.735,11.262-9.735,11.262c-10.638,0.069-12.158,0.597-12.23-3.54L19.258,57.479z"/> <path fill="none" stroke="#000000" stroke-width="0.5" stroke-miterlimit="10" d="M19.258,57.479 c-0.047-6.932,6.225-5.07,11.911-5.108l67.997-0.448c5.688-0.037,10.786,0.785,10.834,7.717l-0.83,13.24 c0.048,6.932-4.181,5.471-9.867,5.508c0,0,0.561-11.182-9.985-11.295c-11.685-0.128-10.634,11.494-10.634,11.494l-27.83-0.402 c0,0,0.919-11.511-10.375-11.045c-10.458,0.432-9.735,11.262-9.735,11.262c-10.638,0.069-12.158,0.597-12.23-3.54 L19.258,57.479z"/> </g> <path fill="#E1E8ED" stroke="#000000" stroke-width="0.5" stroke-miterlimit="10" d="M92.407,40.456 c-2.286-6.813-4.512-9.552-10.126-9.543L49.24,30.956c-5.615,0.008-8.675,3.953-10.153,9.771L36.6,51.517l12.562-0.078 l33.146,0.006l13.874-0.203L92.407,40.456z"/> </g> </g> <g> <polygon fill="#3399FF" points="65.068,50.274 48.273,50.414 48.121,32.88 64.918,32.74 			"/> <polygon fill="#3399FF" points="83.491,50.122 66.694,50.261 66.543,32.728 83.339,32.587 			"/> <path fill="#3399FF" d="M40.559,40.619c0.403-1.114,1.02-3.601,2.276-5.238c1.317-1.722,3.413-2.485,3.413-2.485l0.075,17.637 l-7.932,0.066C38.391,50.599,39.736,42.901,40.559,40.619z"/> <path fill="#3399FF" d="M90.709,40.151c-0.422-1.108-1.083-3.582-2.367-5.199c-1.347-1.701-3.456-2.428-3.456-2.428l0.231,17.634 l7.932-0.067C93.05,50.091,91.571,42.419,90.709,40.151z"/> </g> <g> <path fill="#EC6045" d="M20.652,9.312C19.269-0.988,5.443-3.699,1.296,6.06c-1.382,3.252-0.83,5.963-0.83,8.945 c0,2.169-0.83,2.71-0.276,4.879c0.829,2.169,2.488,1.897,2.211,5.15c0,2.981-3.871,7.047-1.659,10.3 c1.936,2.169,6.637,1.627,8.849,3.524c2.488,2.711,1.935,7.048,6.635,7.859c1.383,0.273,2.766-0.812,3.872-0.541 c2.489,0.541,2.489,1.898,4.424,2.981c8.019,4.338,4.147-5.149,4.147-9.215c0-5.151,10.507-9.487,2.765-13.012 c-3.871-1.897-12.996,0.542-13.272-6.505c-0.276-5.964,13.272-5.151,2.766-11.385"/> </g> <path fill="#FFFFFF" stroke="#000000" stroke-width="0.5" stroke-miterlimit="10" d="M25.864,53.533l-0.006,1.239l-0.018,1.061 c0,0-0.016,0.61-0.062,1.719l-3.528,0.011c-1.16-0.427-1.307-1.052-1.278-2.152l0,0c0.027-1.103,0.195-1.501,1.28-1.898 L25.864,53.533z"/> <g> <g>  <ellipse fill="#CCD6DD" stroke="#000000" stroke-width="0.75" stroke-miterlimit="10" cx="40.888" cy="77.224" rx="7.88" ry="7.725"/>  <ellipse fill="#CCD6DD" stroke="#000000" stroke-width="0.75" stroke-miterlimit="10" cx="88.97" cy="77.274" rx="7.88" ry="7.725"/> </g> </g> </g> </svg>