<svg version="1.1" xmlns="http://www.w3.org/2000/svg" xmlns:xlink="http://www.w3.org/1999/xlink" x="0px" y="0px" width="100%" height="100%" viewBox="0 0 130.803 70.907" enable-background="new 0 0 130.803 70.907" xml:space="preserve"> <g> <path fill="#EC6045" stroke="#000000" stroke-width="0.5" stroke-miterlimit="10" d="M57.956,31.579 c0.224,0.267,0.172,0.671-0.116,0.901l0,0c-0.286,0.231-0.699,0.202-0.923-0.064L40.451,12.782c-0.221-0.266-0.171-0.67,0.115-0.9 l0,0c0.286-0.231,0.703-0.203,0.924,0.063L57.956,31.579z"/> <g> <g> <g> <path fill="#E1E8ED" d="M40.242,36.548c-0.049-6.897,6.193-5.044,11.854-5.083l67.675-0.446 c5.661-0.037,10.735,0.781,10.782,7.679l-0.826,13.173c0.049,6.898-4.159,5.444-9.819,5.481c0,0,0.56-11.126-9.938-11.24 c-11.63-0.127-10.586,11.438-10.586,11.438L71.687,57.15c0,0,0.917-11.453-10.326-10.99 c-10.407,0.429-9.688,11.206-9.688,11.206C41.084,57.435,39.572,57.96,39.5,53.844L40.242,36.548z"/> <path fill="none" stroke="#000000" stroke-width="0.5" stroke-miterlimit="10" d="M40.242,36.548 c-0.049-6.897,6.193-5.044,11.854-5.083l67.675-0.446c5.661-0.037,10.735,0.781,10.782,7.679l-0.826,13.173 c0.049,6.898-4.159,5.444-9.819,5.481c0,0,0.56-11.126-9.938-11.24c-11.63-0.127-10.586,11.438-10.586,11.438L71.687,57.15 c0,0,0.917-11.453-10.326-10.99c-10.407,0.429-9.688,11.206-9.688,11.206C41.084,57.435,39.572,57.96,39.5,53.844 L40.242,36.548z"/> </g> <path fill="#E1E8ED" stroke="#000000" stroke-width="0.5" stroke-miterlimit="10" d="M113.048,19.82 c-2.217-6.797-4.409-9.54-9.998-9.578l-32.883-0.223c-5.589-0.038-8.666,3.862-10.187,9.641l-2.564,10.714l12.5,0.023 l32.989,0.275l13.81-0.092L113.048,19.82z"/> </g> </g> <g> <rect x="69.042" y="11.927" fill="#3399FF" width="16.718" height="17.448"/> <rect x="87.378" y="11.927" fill="#3399FF" width="16.719" height="17.448"/> <path fill="#3399FF" d="M61.45,19.565c0.409-1.106,1.047-3.575,2.309-5.195c1.327-1.703,3.419-2.444,3.419-2.444L67.1,29.476 h-7.895C59.205,29.476,60.611,21.829,61.45,19.565z"/> <path fill="#3399FF" d="M111.364,19.515c-0.41-1.106-1.046-3.575-2.31-5.195c-1.328-1.702-3.417-2.443-3.417-2.443l0.075,17.547 h7.896C113.609,29.424,112.202,21.778,111.364,19.515z"/> </g> <path fill="#FFFFFF" stroke="#000000" stroke-width="0.5" stroke-miterlimit="10" d="M46.815,32.622l-0.006,1.233l-0.019,1.056 c0,0-0.016,0.607-0.061,1.709l-3.511,0.011c-1.154-0.425-1.301-1.047-1.273-2.142l0,0c0.027-1.097,0.196-1.494,1.274-1.889 L46.815,32.622z"/>  <ellipse fill="#CCD6DD" stroke="#000000" stroke-width="0.75" stroke-miterlimit="10" cx="61.768" cy="56.194" rx="7.843" ry="7.687"/>  <ellipse fill="#CCD6DD" stroke="#000000" stroke-width="0.75" stroke-miterlimit="10" cx="109.622" cy="56.245" rx="7.843" ry="7.688"/> <g> <g> <ellipse opacity="0.4" fill="#CCD6DD" cx="47.174" cy="24.396" rx="20.03" ry="19.353"/> <g> <g> <path fill="#CCD6DD" stroke="#000000" stroke-width="0.75" stroke-miterlimit="10" d="M36.919,12.745 c-0.996-0.134-1.723-0.849-1.617-1.599l0,0c0.105-0.75,5.88-5.363,14.668-4.132c6.688,0.937,11.362,6.834,11.258,7.584l0,0 c-0.104,0.751-0.999,1.25-1.997,1.118c0,0-4.076-5.498-9.845-6.365C42.447,8.308,36.919,12.745,36.919,12.745z"/> <g> <path fill="#CCD6DD" stroke="#000000" stroke-width="0.75" stroke-miterlimit="10" d="M32.915,44.354l-1.621-1.556 c4.276,3.357,9.731,5.331,15.644,5.237c13.459-0.214,24.193-11.056,23.974-24.216c-0.22-13.16-11.308-23.655-24.766-23.441 C32.686,0.592,21.953,11.434,22.17,24.595c0.097,5.669,2.212,10.84,5.66,14.877l-1.155-1.11l-3.24,2.987l6.487,6.271 L32.915,44.354z M27.144,24.632C26.966,13.899,35.719,5.058,46.694,4.883c10.977-0.175,20.018,8.384,20.198,19.115 c0.179,10.732-8.575,19.574-19.55,19.749C36.366,43.922,27.323,35.363,27.144,24.632z"/> <polygon fill="#CCD6DD" stroke="#000000" stroke-width="0.75" stroke-miterlimit="10" points="28.304,49.386 21.668,42.978 19.818,44.684 26.603,51.24 							"/> <polygon fill="#CCD6DD" stroke="#000000" stroke-width="0.75" stroke-miterlimit="10" points="24.438,53.604 17.46,46.861 0.553,62.458 9.064,70.375 							"/> </g> </g> </g> </g> </g> </g> </svg>