<svg version="1.1" xmlns="http://www.w3.org/2000/svg" xmlns:xlink="http://www.w3.org/1999/xlink" x="0px" y="0px" width="100%" height="100%" viewBox="0 0 190 48.305" enable-background="new 0 0 190 48.305" xml:space="preserve"> <g> <path fill="#3399FF" d="M189.457,23.555c-1.738-7.363,0.211-7.239-9.938-7.572c-2.309-0.077-3.473,0.418-5.539-0.474 c-2.412-1.048-18.195-11.66-20.523-12.306c-13.979-3.872-29.645-3.474-44.634-2.682C89.205,1.552,77.457,9.851,66.851,15.7 c-3.538,1.949-4.733,3.037-5.996,3.764c-1.264,0.728-2.589,1.089-6.38,1.593C36.488,25.408,9.773,20.993,0,39.924 C14.986,26.04,36.488,29.197,55.326,28.37c2.348-0.033,4.799-0.061,7.342-0.089c22.886-0.274,53.061-0.807,80.034-1.792 c1.654-0.063,3.298-0.126,4.923-0.188c17.879-1.523,11.043-2.287,28.258-4.209c9.879-1.102,10.397,2.816,12.297,8.707 C190.462,30.603,190.232,31.364,189.457,23.555z M72.271,21.413c3.624-2.974,18.155-14.245,31.399-15.34 c13.364-1.102,30.565-1.68,42.654,1.497c1.728,0.454,3.35,0.983,4.844,1.603c5.392,1.901,10.604,5.688,13.862,10.105 c-3.91,0-7.165,1.265-11.124,0.886c-2.223,0.065-4.712,0.125-7.401,0.191c-26.898,0.636-73.967,1.749-73.967,1.749 C72.163,22.112,71.981,21.652,72.271,21.413z"/> <path fill="#3399FF" d="M91.542,26.189h6.318c0.78,0,1.507-0.517,1.632-1.265c0.16-0.953-0.594-1.778-1.549-1.778H94.17 c-0.783,0-1.531,0.313-2.068,0.866l-1.051,1.082C90.648,25.509,90.951,26.189,91.542,26.189z"/> <rect x="69.057" y="29.99" fill="none" width="107.492" height="15.01"/> <text transform="matrix(1.0325 0 0 1 69.0576 43.5352)"><tspan x="0" y="0" fill="#3399FF" font-family="'Raleway-Black'" font-size="19.0778">R</tspan><tspan x="10.264" y="0" fill="#3399FF" font-family="'Raleway-Black'" font-size="16.3524">epair &amp;</tspan><tspan x="58.175" y="0" fill="#3399FF" font-family="'Raleway-Black'" font-size="19.0778"> D</tspan><tspan x="74.925" y="0" fill="#3399FF" font-family="'Raleway-Black'" font-size="16.3524">rive</tspan></text> <path fill="#3399FF" d="M17.928,32.456l-2.443,0.104c-2.878,0.524-4.534,1.682-6.999,3.041c-1.603,0.887-4.905,2.979-5.599,4.183 l12.326,0.138c3.93,0,5.049-2.105,5.049-5.1C20.262,33.983,19.449,32.665,17.928,32.456z"/> <path fill="#3399FF" d="M177.396,22.619l3.994,0.224c1.88,0.11,3.626,1.411,4.583,3.449c0.76,1.633,1.119,3.195,1.257,4.535 l-6.403-0.364c-2.676-0.148-4.822-2.947-4.797-6.249C176.035,23.29,176.646,22.578,177.396,22.619z"/> </g> </svg>