<svg version="1.1" xmlns="http://www.w3.org/2000/svg" xmlns:xlink="http://www.w3.org/1999/xlink" x="0px" y="0px" width="100%" height="100%" viewBox="0 0 90 84.999" enable-background="new 0 0 90 84.999" xml:space="preserve"> <g> <path fill="#E1E8ED" d="M47.695,71.272C24.038,71.615,4.625,55.938,4.333,36.26C4.04,16.579,22.979,0.348,46.636,0.005 c23.657-0.344,43.068,15.331,43.36,35.011C90.292,54.697,71.351,70.929,47.695,71.272z"/> <path fill="#E1E8ED" d="M0,84.999c0,0,0.511-11.687,6.059-18.094c3.327-3.84,14.382-14.397,14.382-14.397l5.606,5.231 c0,0-10.107,4.213-17.553,11.623C3.969,73.866,0,84.999,0,84.999z"/> <path fill="#EC6045" d="M71.094,42.177c0,3.551-2.75,6.43-6.143,6.43H29.38c-3.39,0-6.142-2.879-6.142-6.43V29.101 c0-3.551,2.752-6.43,6.142-6.43h35.571c3.393,0,6.143,2.879,6.143,6.43V42.177z"/> <path fill="#E1E8ED" d="M52.591,35.724L70.32,25.249c-0.426-0.598-0.938-1.119-1.534-1.531L47.709,36.171L26.526,23.655 c-0.607,0.404-1.137,0.916-1.572,1.508l17.275,10.208L24.713,45.722c0.394,0.611,0.884,1.143,1.446,1.582l18.135-10.713 l3.275,1.936l0.14-0.228l0.136,0.228l2.685-1.584l18.077,10.679c0.615-0.396,1.158-0.899,1.604-1.489L52.591,35.724z"/> </g> </svg>