<svg version="1.1" xmlns="http://www.w3.org/2000/svg" xmlns:xlink="http://www.w3.org/1999/xlink" x="0px" y="0px" width="100%" height="100%" viewBox="0 0 20 25" enable-background="new 0 0 20 25" xml:space="preserve"> <g transform="matrix(1,0,0,-1,197.42373,1300.6102)"> <path fill="#3399FF" d="M-177.424,1279.825c0-1.302-0.346-2.329-1.038-3.084c-0.691-0.755-1.61-1.131-2.756-1.131h-12.413 c-1.146,0-2.064,0.376-2.756,1.131s-1.037,1.782-1.037,3.084c0,0.576,0.016,1.137,0.051,1.686 c0.032,0.548,0.098,1.139,0.197,1.774c0.1,0.634,0.225,1.222,0.378,1.767c0.15,0.54,0.355,1.071,0.609,1.584 c0.256,0.517,0.55,0.957,0.882,1.321c0.33,0.362,0.736,0.653,1.215,0.869c0.477,0.218,1.004,0.327,1.583,0.327 c0.085,0,0.284-0.119,0.597-0.351c0.313-0.234,0.665-0.493,1.057-0.782c0.393-0.287,0.905-0.547,1.535-0.78 c0.63-0.234,1.262-0.351,1.896-0.351s1.267,0.116,1.896,0.351c0.629,0.233,1.141,0.493,1.533,0.78 c0.394,0.289,0.745,0.548,1.059,0.782c0.312,0.231,0.512,0.351,0.597,0.351c0.577,0,1.106-0.109,1.583-0.327 c0.479-0.216,0.885-0.507,1.215-0.869c0.331-0.364,0.626-0.805,0.881-1.321c0.256-0.513,0.46-1.044,0.61-1.584 c0.152-0.545,0.278-1.133,0.377-1.767c0.099-0.636,0.167-1.227,0.198-1.774C-177.441,1280.962-177.424,1280.401-177.424,1279.825z M-181.97,1294.362c0-1.728-0.532-3.199-1.598-4.421c-1.065-1.22-2.351-1.832-3.856-1.832s-2.791,0.612-3.856,1.832 c-1.065,1.222-1.598,2.693-1.598,4.421c0,1.723,0.532,3.196,1.598,4.418c1.065,1.22,2.351,1.83,3.856,1.83s2.791-0.61,3.856-1.83 C-182.502,1297.558-181.97,1296.085-181.97,1294.362z"/> </g> </svg>