<svg version="1.1" xmlns="http://www.w3.org/2000/svg" xmlns:xlink="http://www.w3.org/1999/xlink" x="0px" y="0px" width="100%" height="100%" viewBox="0 0 90 80.136" enable-background="new 0 0 90 80.136" xml:space="preserve"> <g> <text transform="matrix(0.9756 0 0 1 39.4805 43.0518)" font-family="'MyriadPro-Regular'" font-size="10.9474">TK</text> <polygon fill="#EC6045" points="22.499,80.013 0,40.069 22.499,0.123 67.5,0.123 90,40.069 67.5,80.013 		" /> <polygon fill="#E1E8ED" stroke="#000000" stroke-width="0.5" stroke-miterlimit="10" points="29.675,67.273 14.352,40.069 29.675,12.862 60.324,12.862 75.647,40.069 60.324,67.273 		" /> <polygon fill="#E1E8ED" stroke="#000000" stroke-width="0.5" stroke-miterlimit="10" points="37.366,53.621 29.734,40.069 37.366,26.518 52.633,26.518 60.265,40.069 52.633,53.621 		" /> <line fill="none" stroke="#000000" stroke-width="0.5" stroke-miterlimit="10" x1="52.633" y1="26.518" x2="67.5" y2="0.123" /> <line fill="none" stroke="#000000" stroke-width="0.5" stroke-miterlimit="10" x1="37.366" y1="26.518" x2="22.499" y2="0.123" /> <line fill="none" stroke="#000000" stroke-width="0.5" stroke-miterlimit="10" x1="0" y1="40.069" x2="29.734" y2="40.069" /> <line fill="none" stroke="#000000" stroke-width="0.5" stroke-miterlimit="10" x1="22.499" y1="80.013" x2="37.366" y2="53.621" /> <line fill="none" stroke="#000000" stroke-width="0.5" stroke-miterlimit="10" x1="67.5" y1="80.013" x2="52.633" y2="53.621" /> <line fill="none" stroke="#000000" stroke-width="0.5" stroke-miterlimit="10" x1="60.265" y1="40.069" x2="90" y2="40.069" /> <line fill="none" stroke="#000000" stroke-width="0.5" stroke-miterlimit="10" x1="10.377" y1="58.491" x2="21.287" y2="52.383" /> <line fill="none" stroke="#000000" stroke-width="0.5" stroke-miterlimit="10" x1="11.825" y1="19.075" x2="22.499" y2="25.602" /> <line fill="none" stroke="#000000" stroke-width="0.5" stroke-miterlimit="10" x1="45" y1="0.123" x2="44.999" y2="12.862" /> <line fill="none" stroke="#000000" stroke-width="0.5" stroke-miterlimit="10" x1="44.999" y1="67.273" x2="45" y2="80.013" /> <line fill="none" stroke="#000000" stroke-width="0.5" stroke-miterlimit="10" x1="67.5" y1="25.602" x2="78.986" y2="20.516" /> <line fill="none" stroke="#000000" stroke-width="0.5" stroke-miterlimit="10" x1="67.5" y1="54.534" x2="78.986" y2="59.62" /> <rect x="8.042" y="43.051" fill="none" width="7.564" height="10.72" /> <text transform="matrix(0.9756 0 0 1 8.043 50.8232)" font-family="'MyriadPro-Regular'" font-size="10.9474">1</text> <rect x="9.597" y="26.515" fill="none" width="7.565" height="10.72" /> <text transform="matrix(0.9756 0 0 1 9.5967 34.2871)" font-family="'MyriadPro-Regular'" font-size="10.9474">2</text> <rect x="18.717" y="9.795" fill="none" width="7.566" height="10.72" /> <text transform="matrix(0.9756 0 0 1 18.7163 17.5674)" font-family="'MyriadPro-Regular'" font-size="10.9474">3</text> <rect x="32.471" y="2.6" fill="none" width="7.566" height="10.719" /> <text transform="matrix(0.9756 0 0 1 32.4712 10.3721)" font-family="'MyriadPro-Regular'" font-size="10.9474">4</text> <rect x="50.84" y="2.6" fill="none" width="7.565" height="10.719" /> <text transform="matrix(0.9756 0 0 1 50.8394 10.3721)" font-family="'MyriadPro-Regular'" font-size="10.9474">5</text> <rect x="64.917" y="9.795" fill="none" width="7.564" height="10.72" /> <text transform="matrix(0.9756 0 0 1 64.917 17.5674)" font-family="'MyriadPro-Regular'" font-size="10.9474">6</text> <rect x="75.204" y="26.515" fill="none" width="7.566" height="10.72" /> <text transform="matrix(0.9756 0 0 1 75.2041 34.2871)" font-family="'MyriadPro-Regular'" font-size="10.9474">7</text> <rect x="75.256" y="44.077" fill="none" width="7.566" height="10.718" /> <text transform="matrix(0.9756 0 0 1 75.2559 51.8496)" font-family="'MyriadPro-Regular'" font-size="10.9474">8</text> <rect x="64.917" y="61.456" fill="none" width="7.564" height="10.719" /> <text transform="matrix(0.9756 0 0 1 64.917 69.2285)" font-family="'MyriadPro-Regular'" font-size="10.9474">9</text> <rect x="48.949" y="69.209" fill="none" width="11.348" height="10.719" /> <text transform="matrix(0.9756 0 0 1 48.9487 76.9819)" font-family="'MyriadPro-Regular'" font-size="10.9474">10</text> <polygon fill="none" points="41.977,80.122 30.19,79.729 30.53,69.015 42.316,69.408 		" /> <text transform="matrix(0.9756 0 0 1 30.5059 76.7876)" font-family="'MyriadPro-Regular'" font-size="10.9474">11</text> <rect x="14.352" y="59.619" fill="none" width="11.08" height="10.72" /> <text transform="matrix(0.9756 0 0 1 14.3521 67.3916)" font-family="'MyriadPro-Regular'" font-size="10.9474">12</text> <rect x="22.5" y="45.708" fill="none" width="11.079" height="10.719" /> <text transform="matrix(0.9756 0 0 1 22.5 53.48)" font-family="'MyriadPro-Regular'" font-size="10.9474">19</text> <rect x="22.5" y="24.497" fill="none" width="11.079" height="10.72" /> <text transform="matrix(0.9756 0 0 1 22.5 32.269)" font-family="'MyriadPro-Regular'" font-size="10.9474">20</text> <rect x="38.854" y="14.883" fill="none" width="11.08" height="10.719" /> <text transform="matrix(0.9756 0 0 1 38.8545 22.6553)" font-family="'MyriadPro-Regular'" font-size="10.9474">21</text> <rect x="56.419" y="25.602" fill="none" width="11.081" height="10.718" /> <text transform="matrix(0.9756 0 0 1 56.4194 33.3745)" font-family="'MyriadPro-Regular'" font-size="10.9474">22</text> <rect x="56.877" y="45.708" fill="none" width="11.081" height="10.719" /> <text transform="matrix(0.9756 0 0 1 56.877 53.48)" font-family="'MyriadPro-Regular'" font-size="10.9474">23</text> <rect x="38.854" y="56.096" fill="none" width="11.08" height="10.72" /> <text transform="matrix(0.9756 0 0 1 38.8545 63.8682)" font-family="'MyriadPro-Regular'" font-size="10.9474">24</text> </g></svg>
