<svg version="1.1" xmlns="http://www.w3.org/2000/svg" xmlns:xlink="http://www.w3.org/1999/xlink" x="0px" y="0px" width="100%" height="100%" viewBox="0 0 170.5 61.25" enable-background="new 0 0 170.5 61.25" xml:space="preserve"> <g> <g> <g> <path fill="#E1E8ED" stroke="#000000" stroke-width="0.5" stroke-miterlimit="10" d="M116.093,10.015l-1.75,5.781L85.144,1.736 L83.13,5.132l28.713,16.77l-2.853,8.81l-48.928,0.106l-12.277,7.164v2.708l12.188,0.106l0.089,11.25h2.72 c0,0,0.953-12.736,12.399-12.843c8.179-0.076,11.022,5.838,11.022,5.838s3.604-5.732,10.495-5.625 c11.449,0.176,12.188,12.63,12.188,12.63h11.377V30.818V10.015H116.093z"/>  <ellipse fill="#E1E8ED" stroke="#000000" stroke-width="2" stroke-miterlimit="10" cx="74.741" cy="50.985" rx="8.191" ry="8.203"/>  <ellipse fill="#E1E8ED" stroke="#000000" stroke-width="2" stroke-miterlimit="10" cx="96.787" cy="50.985" rx="8.191" ry="8.203"/> <path fill="#E1E8ED" stroke="#000000" stroke-width="0.5" stroke-miterlimit="10" d="M166.222,30.925l-9.822-1.678 l-2.364-20.292L122.874,8.21v43.836h3.074c0,0,1.483-11.675,11.129-11.675c11.129,0,12.4,11.675,12.4,11.675h5.616v-7.536 h11.128V30.925z"/>  <ellipse fill="#E1E8ED" stroke="#000000" stroke-width="2" stroke-miterlimit="10" cx="137.803" cy="52.046" rx="8.191" ry="8.204"/> <polygon fill="#E1E8ED" stroke="#000000" stroke-width="0.5" stroke-miterlimit="10" points="168.448,36.551 168.448,46.103 157.319,46.103 157.319,53.957 170.25,53.957 170.25,46.634 170.25,46.103 170.25,36.551 				"/> <rect x="133.686" y="11.395" fill="#3399FF" width="19.183" height="18.734"/> <polygon fill="#E1E8ED" stroke="#000000" stroke-width="0.5" stroke-miterlimit="10" points="141.741,4.284 141.741,0.25 134.215,0.25 134.215,4.284 131.247,4.284 131.247,6.831 134.215,6.831 141.741,6.831 143.966,6.831 143.966,4.284 				"/>  <rect x="134.215" y="0.25" fill="#F15A24" stroke="#000000" stroke-width="0.5" stroke-miterlimit="10" width="7.526" height="4.034"/>  <rect x="72.684" y="0.066" transform="matrix(0.6697 0.7426 -0.7426 0.6697 34.416 -49.6793)" fill="#E1E8ED" stroke="#000000" stroke-width="0.5" stroke-miterlimit="10" width="0.743" height="27.567"/> </g> </g> <g> <g> <g> <path fill="#CCD6DD" stroke="#000000" stroke-width="0.75" stroke-miterlimit="10" d="M44.482,33.934 c1.491,2.646,4.845,3.582,7.488,2.089c2.645-1.493,3.579-4.85,2.087-7.498c-1.491-2.648-4.843-3.584-7.488-2.091 C43.926,27.928,42.992,31.285,44.482,33.934z"/> <path fill="#CCD6DD" stroke="#000000" stroke-width="0.75" stroke-miterlimit="10" d="M15.293,50.464 c1.489,2.646,4.842,3.582,7.486,2.089c2.646-1.493,3.579-4.849,2.087-7.499c-1.49-2.648-4.842-3.583-7.486-2.089 C14.736,44.459,13.801,47.814,15.293,50.464z"/> </g> </g> <g> <g> <g> <path fill="#E1E8ED" d="M55.509,11.554c-2.395-4.318-5.555-1.011-9.021,0.917L5.025,35.525 c-3.468,1.928-6.277,4.188-3.882,8.508l5.13,7.929c2.393,4.32,4.452,1.963,7.919,0.034c0,0-4.25-6.747,2.117-10.437 c7.054-4.089,10.478,3.484,10.478,3.484l16.765-9.8c0,0-4.582-6.827,2.443-10.414c6.504-3.322,9.849,3.648,9.849,3.648 c6.486-3.607,7.594-3.801,6.193-6.393L55.509,11.554z"/> <path fill="none" stroke="#000000" stroke-width="0.5" stroke-miterlimit="10" d="M55.509,11.554 c-2.395-4.318-5.555-1.011-9.021,0.917L5.025,35.525c-3.468,1.928-6.277,4.188-3.882,8.508l5.13,7.929 c2.393,4.32,4.452,1.963,7.919,0.034c0,0-4.25-6.747,2.117-10.437c7.054-4.089,10.478,3.484,10.478,3.484l16.765-9.8 c0,0-4.582-6.827,2.443-10.414c6.504-3.322,9.849,3.648,9.849,3.648c6.486-3.607,7.594-3.801,6.193-6.393L55.509,11.554z"/> </g> <path fill="#E1E8ED" stroke="#000000" stroke-width="0.5" stroke-miterlimit="10" d="M5.195,26.223 c-1.035-5.004-0.661-7.469,2.738-9.42L27.925,5.326c3.398-1.949,6.647-0.578,9.603,2.502l5.329,5.797l-7.622,4.326 L15.196,29.495l-8.461,4.705L5.195,26.223z"/> </g> </g> <g> <polygon fill="#3399FF" points="25.206,22.774 35.41,17.01 29.282,6.129 19.078,11.893 				"/> <polygon fill="#3399FF" points="14.015,29.095 24.218,23.332 18.092,12.45 7.886,18.214 				"/> <path fill="#3399FF" d="M36.6,8.274c-0.64-0.548-1.896-1.868-3.234-2.442c-1.408-0.605-2.945-0.346-2.945-0.346l6.211,10.917 l4.819-2.721C41.45,13.682,37.906,9.397,36.6,8.274z"/> <path fill="#3399FF" d="M6.114,25.452C5.976,24.62,5.499,22.862,5.7,21.416c0.212-1.519,1.229-2.702,1.229-2.702l6.116,10.971 l-4.818,2.721C8.227,32.406,6.399,27.153,6.114,25.452z"/> </g> <path fill="#FFFFFF" stroke="#000000" stroke-width="0.5" stroke-miterlimit="10" d="M50.118,11.373l0.437,0.768l0.381,0.651 c0,0,0.224,0.373,0.637,1.044l2.147-1.203c0.556-0.664,0.426-1.102,0.025-1.776l0,0c-0.402-0.673-0.644-0.864-1.441-0.738 L50.118,11.373z"/> </g> </g></svg>