<svg version="1.1" xmlns="http://www.w3.org/2000/svg" xmlns:xlink="http://www.w3.org/1999/xlink" x="0px" y="0px" width="100%" height="100%" viewBox="0 0 140 70" enable-background="new 0 0 140 70" xml:space="preserve"> <g> <path fill="#CCD6DD" d="M123.844,54.437C125.021,43.47,140,46.22,140,46.22s-11.892-9.877-21.268-4.142 c0,0-5.233,3.176-12.822,0.36l-8.976-3.334l-14.21-5.275L47.533,20.767l-0.001,0.004l-10.044-3.729 C28.711,13.783,25.044,6.282,25.044,6.282C17.968-7.211,0.557,5.232,0.557,5.232c17.204,1.085,15.601,10.332,15.601,10.332 C14.981,26.527,0,23.78,0,23.78s11.896,9.876,21.271,4.143c0,0,5.231-3.178,12.821-0.361l45.237,16.793l13.139,4.879l1.071,0.396 v-0.002l8.976,3.332c8.776,3.256,12.444,10.76,12.444,10.76c7.076,13.49,24.485,1.049,24.485,1.049 C122.243,63.683,123.844,54.437,123.844,54.437z"/> <g> <g> <g> <g> <path fill="#E1E8ED" d="M139.444,64.769c-17.201-1.086-15.601-10.332-15.601-10.332C125.021,43.47,140,46.22,140,46.22 s-11.892-9.877-21.268-4.142c0,0-9.829,7.892-3.773,21.642C122.035,77.21,139.444,64.769,139.444,64.769z"/> </g> </g> <g> <path fill="#E1E8ED" d="M0.557,5.232c17.204,1.085,15.601,10.332,15.601,10.332C14.981,26.527,0,23.78,0,23.78 s11.896,9.876,21.271,4.143c0,0,9.828-7.893,3.773-21.641C17.968-7.211,0.557,5.232,0.557,5.232z"/> </g> </g> </g> <path fill="#EC6045" d="M107.259,48.831c-0.412,1.283-1.72,1.965-2.919,1.52L34.162,24.3c-1.198-0.444-1.833-1.848-1.418-3.131 l0,0c0.415-1.283,1.721-1.965,2.918-1.521l70.176,26.05C107.039,46.144,107.673,47.548,107.259,48.831L107.259,48.831z"/> </g> </svg>